<svg width="333" height="58" viewBox="0 0 333 58" fill="none" xmlns="http://www.w3.org/2000/svg">
<path d="M5.50994 16.479V26.1477C5.52096 26.197 5.5981 26.4161 6.01686 26.7941C6.58163 27.3063 7.55413 27.8924 8.98947 28.4402C11.8409 29.5331 15.9678 30.2644 20.6623 30.2644C25.3568 30.2644 29.4837 29.5331 32.3351 28.4402C33.7704 27.8924 34.7429 27.3063 35.3105 26.7968C35.7265 26.4161 35.8036 26.197 35.8146 26.1477V16.479C35.3223 16.711 34.8214 16.9248 34.3132 17.1199C30.6849 18.5086 25.8554 19.3084 20.6623 19.3084C15.4692 19.3084 10.6397 18.5086 7.0114 17.1199C6.50312 16.9248 6.00229 16.711 5.50994 16.479ZM41.3246 9.72186V27.5857C43.8375 27.8144 46.2531 28.6634 48.3522 30.0557C50.4514 31.448 52.1675 33.3395 53.3449 35.5584C54.5223 37.7774 55.1237 40.2535 55.0945 42.7621C55.0652 45.2707 54.4062 47.7323 53.1774 49.9235C51.9486 52.1147 50.1888 53.9661 48.0577 55.3097C45.9267 56.6532 43.4919 57.4463 40.9744 57.6171C38.4568 57.7878 35.9362 57.3308 33.6414 56.2874C31.3466 55.244 29.3502 53.6474 27.8335 51.6424C25.6019 51.9875 23.1803 52.1765 20.6623 52.1765C15.4664 52.1765 10.6397 51.3767 7.0114 49.988C5.20414 49.2978 3.55667 48.4076 2.30867 47.2819C1.06066 46.1561 0 44.5702 0 42.5899V9.72186C0 7.73882 1.06066 6.15841 2.30867 5.02994C3.55667 3.90421 5.20414 3.01403 7.0114 2.3238C10.6397 0.935126 15.4692 0.135336 20.6623 0.135336C25.8554 0.135336 30.6849 0.935126 34.3132 2.3238C36.1177 3.01403 37.7679 3.90421 39.0159 5.02994C40.2639 6.15567 41.3246 7.74156 41.3246 9.72186ZM5.50994 9.72186C5.52923 9.78486 5.62014 10.0012 6.01686 10.36C6.58163 10.8722 7.55413 11.4584 8.98947 12.0062C11.8409 13.0991 15.9678 13.8304 20.6623 13.8304C25.3568 13.8304 29.4837 13.0991 32.3351 12.0062C33.7704 11.4584 34.7429 10.8722 35.3105 10.3628C35.7072 10.0012 35.7953 9.7876 35.8119 9.72186C35.7953 9.65886 35.7072 9.44248 35.3077 9.08367C34.7429 8.57148 33.7704 7.98533 32.3351 7.43753C29.4837 6.34466 25.3568 5.61335 20.6623 5.61335C15.9678 5.61335 11.8409 6.34466 8.98947 7.43753C7.55413 7.98533 6.58163 8.57148 6.0141 9.08093C5.61739 9.44248 5.52647 9.65612 5.50994 9.72186ZM5.5127 32.913V42.5817C5.52372 42.631 5.60086 42.8502 6.01961 43.2281C6.58438 43.7403 7.55689 44.3265 8.99223 44.8743C11.8436 45.9671 15.9706 46.6985 20.665 46.6985C22.2822 46.6985 23.8388 46.6108 25.3017 46.4519C24.9653 45.1918 24.7949 43.8937 24.7947 42.5899C24.7947 39.9769 25.4642 37.5173 26.6406 35.3754C24.7396 35.6164 22.7313 35.7424 20.6623 35.7424C15.4664 35.7424 10.6397 34.9426 7.0114 33.554C6.50312 33.3588 6.00504 33.1451 5.5127 32.913ZM39.9471 33.0034C39.5834 33.0034 39.2253 33.0226 38.8726 33.0609C36.377 33.334 34.0869 34.5641 32.4892 36.4897C30.8916 38.4153 30.1124 40.8845 30.3173 43.3723C30.5222 45.8602 31.6951 48.1705 33.5865 49.812C35.478 51.4535 37.9389 52.2968 40.446 52.1626C42.9531 52.0284 45.3086 50.9272 47.0119 49.0933C48.7151 47.2593 49.6317 44.8372 49.5667 42.3418C49.5017 39.8465 48.4603 37.4748 46.6639 35.7309C44.8675 33.987 42.4578 33.0085 39.9471 33.0034Z" fill="#0122F4"/>
<path d="M115.024 2.84587L103.996 47.0187H98.3582L90.4901 18.0651C90.2423 17.1989 89.9945 16.3122 89.7466 15.4048C89.5401 14.4974 89.3336 13.6313 89.1271 12.8064C88.9206 11.9815 88.7554 11.2804 88.6315 10.7029C88.5076 10.0843 88.425 9.63058 88.3837 9.34187C88.3424 9.63058 88.2598 10.0843 88.1358 10.7029C88.0119 11.2804 87.8674 11.9815 87.7022 12.8064C87.537 13.6313 87.3304 14.518 87.0826 15.4667C86.8761 16.374 86.649 17.302 86.4011 18.2507L78.7189 47.0187H73.0192L62.0534 2.84587H67.8151L74.1963 29.8197C74.4028 30.7684 74.6093 31.717 74.8158 32.6656C75.0224 33.573 75.1876 34.4804 75.3115 35.3877C75.4767 36.2539 75.6212 37.0994 75.7451 37.9243C75.9104 38.7492 76.0343 39.5534 76.1169 40.3371C76.2408 39.5122 76.3647 38.6667 76.4886 37.8005C76.6538 36.9344 76.819 36.0477 76.9842 35.1403C77.1907 34.1917 77.3972 33.243 77.6038 32.2944C77.8516 31.3458 78.0994 30.4178 78.3472 29.5104L85.5338 2.84587H91.2335L98.7299 29.696C98.9777 30.6446 99.2049 31.6139 99.4114 32.6037C99.6592 33.5524 99.8657 34.4804 100.031 35.3877C100.237 36.2951 100.403 37.1819 100.527 38.048C100.692 38.8729 100.836 39.6359 100.96 40.3371C101.084 39.306 101.249 38.2336 101.456 37.12C101.662 35.9652 101.89 34.7691 102.137 33.5317C102.426 32.2944 102.716 31.0364 103.005 29.7579L109.324 2.84587H115.024Z" fill="#0122F4"/>
<path d="M131.591 13.2395C134.276 13.2395 136.589 13.8581 138.53 15.0955C140.471 16.3328 141.958 18.0857 142.991 20.3541C144.065 22.5813 144.602 25.2004 144.602 28.2112V31.4901H123.29C123.372 35.2434 124.26 38.1099 125.954 40.0896C127.647 42.0281 130.022 42.9973 133.078 42.9973C135.061 42.9973 136.816 42.8117 138.344 42.4405C139.914 42.0281 141.525 41.4507 143.177 40.7083V45.472C141.566 46.2144 139.976 46.7506 138.406 47.0805C136.878 47.4517 135.019 47.6373 132.83 47.6373C129.857 47.6373 127.234 46.998 124.962 45.7195C122.691 44.4409 120.915 42.5437 119.634 40.0277C118.354 37.4706 117.714 34.3566 117.714 30.6859C117.714 27.0564 118.292 23.9424 119.448 21.344C120.605 18.7456 122.216 16.7452 124.281 15.3429C126.387 13.9406 128.824 13.2395 131.591 13.2395ZM131.591 17.6939C129.196 17.6939 127.296 18.5394 125.892 20.2304C124.487 21.8802 123.661 24.1899 123.414 27.1595H139.026C139.026 25.2622 138.757 23.6124 138.22 22.2101C137.683 20.8078 136.857 19.7148 135.742 18.9312C134.668 18.1063 133.285 17.6939 131.591 17.6939Z" fill="#0122F4"/>
<path d="M164.379 13.3013C168.179 13.3013 171.008 14.1881 172.866 15.9616C174.766 17.7351 175.716 20.5604 175.716 24.4373V47.0187H171.813L170.76 42.3168H170.512C169.604 43.5129 168.674 44.5234 167.724 45.3483C166.816 46.1319 165.742 46.7093 164.503 47.0805C163.305 47.4517 161.818 47.6373 160.042 47.6373C158.183 47.6373 156.511 47.2868 155.024 46.5856C153.537 45.8844 152.36 44.8121 151.492 43.3685C150.625 41.8837 150.191 40.0277 150.191 37.8005C150.191 34.501 151.41 31.9644 153.847 30.1909C156.284 28.3762 160.042 27.3863 165.122 27.2213L170.388 27.0357V25.056C170.388 22.2926 169.831 20.3748 168.716 19.3024C167.642 18.23 166.093 17.6939 164.069 17.6939C162.458 17.6939 160.909 17.962 159.423 18.4981C157.977 18.9931 156.593 19.5705 155.272 20.2304L153.599 16.1472C155.003 15.3636 156.635 14.7036 158.493 14.1675C160.352 13.59 162.314 13.3013 164.379 13.3013ZM165.866 30.9952C162.066 31.1602 159.423 31.8201 157.936 32.9749C156.49 34.1298 155.767 35.7589 155.767 37.8624C155.767 39.7184 156.284 41.0795 157.316 41.9456C158.349 42.8117 159.691 43.2448 161.343 43.2448C163.904 43.2448 166.052 42.4818 167.786 40.9557C169.521 39.3884 170.388 36.9963 170.388 33.7792V30.8096L165.866 30.9952Z" fill="#0122F4"/>
<path d="M190.725 47.0187H185.335V0H190.725V47.0187Z" fill="#0122F4"/>
<path d="M211.238 43.1829C212.023 43.1829 212.829 43.1211 213.655 42.9973C214.481 42.8324 215.162 42.6674 215.699 42.5024V46.6475C215.121 46.9362 214.295 47.163 213.221 47.328C212.188 47.5342 211.197 47.6373 210.247 47.6373C208.595 47.6373 207.067 47.3486 205.663 46.7712C204.258 46.1525 203.122 45.1008 202.255 43.616C201.429 42.1312 201.016 40.0484 201.016 37.3675V18.0651H196.617V15.4667L201.14 13.3013L203.184 6.24853H206.406V13.8581H215.451V18.0651H206.406V37.2437C206.406 39.2647 206.86 40.7701 207.769 41.76C208.678 42.7086 209.834 43.1829 211.238 43.1829Z" fill="#0122F4"/>
<path d="M255.952 47.0187H247.588V27.4069H230.489V47.0187H222.187V2.84587H230.489V20.6635H247.588V2.84587H255.952V47.0187Z" fill="#0122F4"/>
<path d="M294.356 13.4869V47.0187H288.037L286.984 42.688H286.55C285.889 43.8428 285.043 44.7915 284.01 45.5339C282.977 46.235 281.842 46.7506 280.603 47.0805C279.364 47.4517 278.083 47.6373 276.761 47.6373C274.449 47.6373 272.445 47.2043 270.752 46.3381C269.059 45.472 267.737 44.1522 266.787 42.3787C265.878 40.5639 265.424 38.2336 265.424 35.3877V13.4869H273.664V33.8411C273.664 36.3157 274.077 38.1924 274.903 39.4709C275.77 40.7083 277.133 41.3269 278.992 41.3269C280.85 41.3269 282.296 40.8939 283.329 40.0277C284.402 39.1204 285.146 37.8212 285.559 36.1301C285.972 34.4391 286.178 32.3563 286.178 29.8816V13.4869H294.356Z" fill="#0122F4"/>
<path d="M311.541 11.136C311.541 12.4558 311.499 13.7344 311.417 14.9717C311.375 16.2091 311.313 17.1783 311.231 17.8795H311.541C312.408 16.4772 313.564 15.3017 315.01 14.3531C316.456 13.3632 318.356 12.8683 320.71 12.8683C324.262 12.8683 327.153 14.3324 329.383 17.2608C331.655 20.1892 332.791 24.4992 332.791 30.1909C332.791 34.0267 332.274 37.2437 331.242 39.8421C330.251 42.4405 328.826 44.3996 326.967 45.7195C325.108 46.998 322.94 47.6373 320.462 47.6373C318.149 47.6373 316.29 47.1836 314.886 46.2763C313.523 45.3689 312.408 44.3172 311.541 43.1211H310.983L309.62 47.0187H303.363V0H311.541V11.136ZM318.108 19.1787C316.538 19.1787 315.278 19.5499 314.329 20.2923C313.379 21.0347 312.676 22.1689 312.222 23.6949C311.809 25.221 311.603 27.1595 311.603 29.5104V30.1909C311.603 33.7792 312.078 36.522 313.028 38.4192C313.977 40.3164 315.733 41.2651 318.294 41.2651C320.276 41.2651 321.784 40.3164 322.816 38.4192C323.89 36.4807 324.427 33.7173 324.427 30.1291C324.427 26.4996 323.89 23.7774 322.816 21.9627C321.784 20.1067 320.214 19.1787 318.108 19.1787Z" fill="#0122F4"/>
</svg>
